# xmcd
#
# Track frame offsets:
#	150
#	20385
#	39494
#	57191
#	74553
#	92509
#	111073
#	132527
#	151669
#	168699
#	184500
#
# Disc length: 2800 seconds
#
# Revision: 1
# Processed by: cddbd v1.5.2PL0 Copyright (c) Steve Scherf et al.
# Submitted via: audiograbber 1.83.01
#
DISCID=8c0aee0b
DTITLE=Murray Porter - Songs Lived and Life Played
DYEAR=2011
DGENRE=Blues
TTITLE0=Rez Blues
TTITLE1=Since She Went Away
TTITLE2=Not So Far Away
TTITLE3=Set My Luv Free
TTITLE4=That Man Was Me
TTITLE5=The Way She Luvs Me
TTITLE6=Call You Baby
TTITLE7=Dog House
TTITLE8=Time Will Come
TTITLE9=I Feel Lucky
TTITLE10=Is Sorry Enough
EXTD=
EXTT0=
EXTT1=
EXTT2=
EXTT3=
EXTT4=
EXTT5=
EXTT6=
EXTT7=
EXTT8=
EXTT9=
EXTT10=
PLAYORDER=
